{
	"asset":{
		"generator":"Khronos glTF Blender I/O v3.5.30",
		"version":"2.0"
	},
	"scene":0,
	"scenes":[
		{
			"name":"Scene",
			"nodes":[
				0
			]
		}
	],
	"nodes":[
		{
			"mesh":0,
			"name":"tree1-col",
			"translation":[
				-0.017377376556396484,
				0,
				-0.01319122314453125
			]
		}
	],
	"materials":[
		{
			"doubleSided":true,
			"name":"_trees_normal",
			"pbrMetallicRoughness":{}
		}
	],
	"meshes":[
		{
			"name":"Circle.010",
			"primitives":[
				{
					"attributes":{
						"POSITION":0,
						"TEXCOORD_0":1,
						"NORMAL":2
					},
					"indices":3,
					"material":0
				}
			]
		}
	],
	"accessors":[
		{
			"bufferView":0,
			"componentType":5126,
			"count":432,
			"max":[
				1.0841189622879028,
				6.601546764373779,
				1.2703850269317627
			],
			"min":[
				-1.115888237953186,
				-0.005712244194000959,
				-1.2703850269317627
			],
			"type":"VEC3"
		},
		{
			"bufferView":1,
			"componentType":5126,
			"count":432,
			"type":"VEC2"
		},
		{
			"bufferView":2,
			"componentType":5126,
			"count":432,
			"type":"VEC3"
		},
		{
			"bufferView":3,
			"componentType":5123,
			"count":642,
			"type":"SCALAR"
		}
	],
	"bufferViews":[
		{
			"buffer":0,
			"byteLength":5184,
			"byteOffset":0,
			"target":34962
		},
		{
			"buffer":0,
			"byteLength":3456,
			"byteOffset":5184,
			"target":34962
		},
		{
			"buffer":0,
			"byteLength":5184,
			"byteOffset":8640,
			"target":34962
		},
		{
			"buffer":0,
			"byteLength":1284,
			"byteOffset":13824,
			"target":34963
		}
	],
	"buffers":[
		{
			"byteLength":15108,
			"uri":"data:application/octet-stream;base64,"
		}
	]
}
